<svg xmlns="http://www.w3.org/2000/svg" height="103.17" viewBox="0 0 109.57618 103.17188" width="109.58"><path d="M1.1205125 58.743575v.72461h1.582c.67 0 .75195.5368.75195 3.5918v7.3535c0 4.825 3.7814 5.8691 6.2227 5.8691 3.325 0 6.9727-1.662 6.9727-6.7832v-9.7637c0-.21375.24016-.26758.53516-.26758h1.0996v-.72461h-4.9082v.72461h1.502c.59 0 .88672.07977.88672 3.916v5.9531c0 5.39-3.8623 5.9277-5.6348 5.9277-1.6612 0-4.9336-.61641-4.9336-5.2539v-10.275c0-.26625.29469-.26758.61719-.26758h1.0723v-.72461h-5.7656zm32.723 1.2715c-.53875 0-.99414.45469-.99414.99219 0 .56375.45539 1.0195.99414 1.0195.535 0 .98828-.45578.98828-1.0195 0-.5375-.45328-.99219-.98828-.99219zm43.447.01172c-.535 0-.99219.45789-.99219.99414 0 .56375.45719 1.0176.99219 1.0176.53625 0 .99414-.45383.99414-1.0176 0-.53625-.45789-.99414-.99414-.99414zm5.58 1.772l-2.172 2.576c-.1625.16-.26953.29594-.26953.42969 0 .1875.10688.1875.67188.1875h.58789v8.7422c0 1.4488.80578 2.4688 2.332 2.4688.94 0 2.3367-.45945 3.168-.93945l-.24414-.53711c-.5625.2425-1.2055.42969-1.8242.42969-1.7425 0-1.875-1.2879-1.875-2.4941v-7.6699h2.5215c.18625 0 .32234-.02758.40234-.64258h-2.9238v-2.5508h-.375zm-4.6406 2.1191c-.4025 0-1.0184.10734-1.8496.21484-.645.08125-1.502.2168-1.877.2168v.64258h1.4199c.45625 0 .75-.0015.75 2.3848v7.4844c0 .2675-.26726.26758-.50976.26758h-.99024v.64453h5.2578v-.64453h-1.0742c-.9925 0-1.127-.000078-1.127-4.0488v-7.1621zm-56.668.002c-.40375 0-1.0191.10539-1.8516.21289-.645.08125-1.5007.21484-1.877.21484v.64258h1.4219c.455 0 .75.0012.75 2.3887v7.4824c0 .26875-.26906.26758-.50781.26758h-.99414v.64453h5.2578v-.64453h-1.0723c-.99375 0-1.127.0012-1.127-4.0488v-4.1836c1.18-.9925 2.4127-1.7715 4.0215-1.7715 1.235 0 2.2266.61758 2.2266 2.7363v7c0 .26875-.26781.26758-.50781.26758h-.99414v.64453h5.2559v-.64453h-1.0723c-.99125 0-1.125.0012-1.125-4.0488v-3.8359c0-1.6088-.69734-3.3242-3.2461-3.3242-1.7425 0-3.1648.99328-4.5586 2.1445v-2.1445zm13.223 0c-.4025 0-1.0203.10539-1.8516.21289-.645.08125-1.5007.21484-1.877.21484v.64258h1.4219c.45625 0 .75.0012.75 2.3887v7.4824c0 .26875-.26852.26758-.50977.26758h-.99219v.64453h5.2559v-.64453h-1.0723c-.99125 0-1.125.0012-1.125-4.0488v-7.1602zm18.371 0c-3.4338 0-5.0703 3.4584-5.0703 6.4922 0 3.0025 1.582 5.791 4.9082 5.791 1.9312 0 3.5925-.75273 4.9062-2.1465l-.373-.399c-.96625.91125-2.0636 1.3652-3.4336 1.3652-3.1888 0-4.3174-2.4131-4.4512-5.2031 3.1375-.7225 5.282-1.3671 7.9883-2.2246-.90875-1.85-2.1959-3.6738-4.4746-3.6738zm8.5801 0c-.40125 0-1.0178.10539-1.8516.21289-.6425.08125-1.5.2168-1.875.2168v.64258h1.4219c.45375 0 .75.000468.75 2.3867v7.4824c0 .2675-.26781.26758-.50781.26758h-.99414v.64453h5.2559v-.64453h-1.0723c-.99375 0-1.127.0012-1.127-4.0488v-3.9961c1.1538-1.2075 1.8508-1.584 2.707-1.584 1.4238 0 1.1554.80664 1.5566.80664.1875 0 .26945-.08187.56445-1.7969-.295-.37625-.80476-.58984-1.2598-.58984-.83125 0-1.5571.48219-3.5684 2.3047v-2.3047zm9.0137 0c-2.3888 0-4.2129 1.6606-4.2129 3.4844 0 4.185 6.7324 2.3341 6.7324 5.4453 0 1.6625-1.6886 2.4668-3.0586 2.4668-1.3688 0-3.2708-.72234-3.457-1.7148-.055-.18625-.11102-.45703-.32226-.45703-.19 0-.29688.08094-.29688.24219 0 .26875.19031 1.2872.35156 2.3047.96375.34875 1.9812.51172 3 .51172 2.2812 0 5.0957-1.0741 5.0957-3.7578 0-4.235-6.8633-2.6788-6.8633-5.5488 0-1.395 1.5548-2.0938 2.6836-2.0938 2.33 0 2.8948 1.2337 3.0273 1.4512.08.13125.10867.23828.29492.23828.135 0 .1875-.08055.1875-.18555 0-.18875-.07961-1.0992-.16211-1.8242-.8575-.40375-1.9025-.5625-3-.5625zm-34.52.42969v.64258h.72656c.50875 0 .72461.42976 1.2871 1.6348.88375 1.8775 3.379 8.155 3.6465 9.0938.2425.56125.29359.56055.40234.56055.13375 0 .21367-.10703.29492-.26953 1.3675-3.35 3.5662-8.6066 4.5312-10.619.18875-.37375.26922-.40039.51172-.40039h.88476v-.64258h-4.5586v.64258h1.2324c.3225 0 .66992-.0016.66992.42969 0 1.0975-1.0186 3.9937-3.0273 8.2324-2.3613-5.7125-3.4629-8.1795-3.4629-8.502 0-.16125.18898-.16016.42773-.16016h1.3164v-.64258h-4.8828zm50.02 0v.64258h.72266c.50875 0 .75336.39976 1.2871 1.6348l3.8105 8.8789c-2.5488 5.5775-4.1041 5.8466-4.9629 6.2754-.32125.13375-.42969.21477-.42969.32227 0 .1875.13476.32227.32226.32227.91125 0 1.8512-.10766 2.7637-.34766 1.18-1.5575 6.7579-15.075 7.2129-16.201.37625-.885.26836-.88476.72461-.88476h.91211v-.64258h-4.4805v.64258h1.209c.37375 0 .64258-.0016.64258.42969 0 .48125-.21539 2.171-3.0566 8.2598-1.0488-2.47-3.541-8.2068-3.541-8.5293 0-.16125.18844-.16016.42969-.16016h1.3125v-.64258h-4.8789zm-33.551.29297c1.4762 0 2.5203 1.6123 2.9766 2.8711l-6.034 1.607c0-1.9825 1.1516-4.4785 3.0566-4.4785zm-29.654 13.342c-3.0062 0-5.9277 1.9317-5.9277 4.668 0 6.035 8.7168 3.753 8.7168 9.0117 0 2.305-2.2259 3.4844-4.5059 3.4844-1.2338 0-3.8897-.53391-4.2109-2.0352-.02625-.215-.08086-.48438-.34961-.48438-.16125 0-.26758.10867-.26758.29492 0 .19.16125 1.0737.375 2.3887 1.1525.455 2.7877.72266 4.0215.72266 3.1925 0 6.3047-1.8519 6.3047-5.2031 0-5.9-8.7969-4.0505-8.7969-8.7168 0-1.3675 1.1015-3.2441 3.834-3.2441.80625 0 3.0321.29328 3.1934 1.3945.02375.21375.05383.375.26758.375.215 0 .24219-.16031.24219-.32031v-1.8262c-.85875-.40125-2.0127-.50977-2.8965-.50977zm31.023.50977v.72656h1.584c.6675 0 .75.53484.75 3.5898v11.723c0 .21625-.23961.26758-.53711.26758h-1.0996v.72266h6.8398c6.8138 0 8.8242-5.333 8.8242-8.793 0-4.2925-2.763-8.2363-8.2617-8.2363h-8.0996zm5.0703.88672h2.5195c1.315 0 6.9473 1.0998 6.9473 7.9648 0 6.8388-4.8539 7.2949-7.1602 7.2949h-2.2012c-.9125 0-1.0977-.000859-1.0977-3.7559v-11.236c0-.26875.48219-.26758.99219-.26758zm14.483.398c-.53625 0-.99219.45719-.99219.99219 0 .565.45594 1.0176.99219 1.0176s.99219-.45258.99219-1.0176c0-.535-.45594-.99219-.99219-.99219zm-59.562 2.5859c-1.5112 0-2.3863 1.3605-2.6738 3.4492l-.12109.875h-.95312l-.076172.36133h.98437c-.2425 2.2675-.54609 4.9755-.62109 5.6543-.2425 2.1625-.62188 3.7949-1.8906 3.7949h-.10352c-.1825-.2725-.43898-.48438-.77148-.48438-.2125 0-.45312.12024-.45312.36524 0 .42125.63359.52734.96484.52734.63625 0 2.6616-.39226 3.0254-3.8848.04375-.455.27094-2.0864.67969-5.9727h1.1348l.07422-.36133h-1.1641l.13477-1.1953c.2275-1.9788.81789-2.7207 1.5879-2.7207.21125.1975.42469.42188.74219.42188.1825 0 .36133-.10453.36133-.30078 0-.39375-.55633-.5293-.86133-.5293zm83.674 1.1445c-.48375 0 .07891.64648-1.7461.64648-.75 0-1.5534-.11023-2.3047-.27148-.48375-.07875-.93883-.21289-1.4238-.21289-2.5462 0-4.4766 2.0379-4.4766 4.5879 0 1.5.75195 2.5994 2.0645 3.2969-.6175.69625-1.6348 1.7701-1.6348 2.5488 0 .9125.85726 1.3408 1.6348 1.582-1.5288.6975-2.9766 1.6088-2.9766 3.4863 0 2.5737 2.8148 3.0566 4.8535 3.0566 2.925 0 6.6797-1.0992 6.6797-3.9941 0-3.325-3.2981-3.4878-4.6406-3.5703-3.4325-.1875-4.2383-.34773-4.2383-1.1777 0-.4575.64414-1.3407.99414-1.6895.455.10625.91203.1875 1.3945.1875 2.4412 0 4.4785-1.7706 4.4785-4.2656 0-1.0738-.24305-1.9033-.9668-2.707.43.05375 1.1005.16016 1.4492.16016.80375 0 .7257-.26836.93945-.91211.055-.135.13477-.43016.13477-.53516 0-.13625-.07984-.2168-.21484-.2168zm-64.551.16211c-2.0112 0-5.1504 1.4214-5.1504 3.5664 0 .26875.24125.5625.5625.5625.83125 0 1.2891-1.2065 1.2891-2.334.67125-.56125 1.7428-.82812 2.6016-.82812 1.9575 0 1.957 1.3143 1.957 1.9043v1.7949c-3.8362 1.5562-6.625 2.7093-6.625 5.123 0 1.475.85774 2.4941 2.334 2.4941 1.5012 0 3.4048-1.4495 4.3711-2.5508.1625 1.4225 1.5023 2.5508 2.4961 2.5508l.85742-1.207c-1.8775-.4025-1.877-1.6362-1.877-3.3262v-4.2637c0-1.985-.02641-3.4863-2.8164-3.4863zm7.9121 0c-.40375 0-1.0203.10539-1.8516.21289-.6425.08125-1.5007.2168-1.877.2168v.64258h1.4199c.45625 0 .75195-.000781.75195 2.3867v7.4844c0 .2675-.27102.26758-.50977.26758h-.99219v.64258h5.2559v-.64258h-1.0723c-.9925 0-1.125-.000781-1.125-4.0508v-4.1855c1.18-.99125 2.4127-1.7676 4.0215-1.7676 1.2362 0 2.2285.61688 2.2285 2.7344v7.002c0 .2675-.26867.26758-.51367.26758h-.99023v.64258h5.2559v-.64258h-1.0742c-.99125 0-1.125-.000781-1.125-4.0508v-3.8359c0-1.61-.69664-3.3242-3.2441-3.3242-1.7425 0-3.1636.99078-4.5586 2.1445v-2.1445zm33.465 0c-.4025 0-1.0196.10539-1.8496.21289-.6425.08125-1.5027.2168-1.8789.2168v.64258h1.4219c.4575 0 .75195-.000781.75195 2.3867v7.4844c0 .2675-.26852.26758-.50976.26758h-.99024v.64258h5.2539v-.64258h-1.0723c-.99125 0-1.127-.000781-1.127-4.0508v-7.1602zm7.2969 0c-3.4338 0-5.0703 3.459-5.0703 6.4902 0 3.0038 1.5807 5.793 4.9082 5.793 1.93 0 3.5945-.75273 4.9082-2.1465l-.375-.40234c-.96375.9125-2.0673 1.3672-3.4336 1.3672-3.1925 0-4.3169-2.4124-4.4531-5.2012 3.1388-.725 5.2841-1.3678 7.9941-2.2266-.9125-1.85-2.1998-3.6738-4.4785-3.6738zm21.584.11914c-2.1188 0-5.9004 1.6901-5.9004 6.5176 0 3.2712 2.0121 5.7637 5.2559 5.7637 2.12 0 5.9023-1.6881 5.9023-6.5156 0-3.2725-2.0103-5.7656-5.2578-5.7656zm-22.041.60352c1.475 0 2.5216 1.6098 2.9766 2.8711l-6.0352 1.6074c0-1.9825 1.1548-4.4785 3.0586-4.4785zm10.459 0c1.985 0 2.9746 1.9594 2.9746 3.7031 0 1.5825-.74742 3.1641-2.5449 3.1641-1.985 0-2.9512-2.0388-2.9512-3.7812 0-1.61.72523-3.0859 2.5215-3.0859zm11.021.19922c2.95 0 4.1289 2.8977 4.1289 5.4727 0 2.4412-.69774 5.2012-3.6465 5.2012-2.9512 0-4.1328-2.8957-4.1328-5.4707 0-2.4388.69914-5.2031 3.6504-5.2031zm-94.93 1.808c-1.9338 0-3.627 2.0986-3.627 4.7148 0 1.165.46875 2.2988 1.9062 2.2988 1.9338 0 3.627-2.0868 3.627-4.7168 0-1.1625-.47-2.2969-1.9062-2.2969zm-.3477.406c1.1038 0 1.3301 1.2253 1.3301 2.1641 0 1.45-.57367 4.0352-2.3574 4.0352-1.1038 0-1.3301-1.2259-1.3301-2.1621 0-1.45.57367-4.0371 2.3574-4.0371zm26.838 2.252v3.4082c-.75125 1.1525-2.0398 2.1992-3.4336 2.1992-1.02 0-1.5273-.64422-1.5273-1.6367 0-2.1188 2.5472-3.1132 4.9609-3.9707zm57.014 6.9199l2.252.13477c2.4675.1625 3.4062 1.2602 3.4062 2.5215 0 1.7425-2.2259 2.8691-4.7734 2.8691-1.6912 0-4.1836-.50946-4.1836-2.627 0-1.6912 1.7701-2.7634 3.2988-2.8984z" fill="#003b70"/><path d="M97.6735125 1.059575c-.16375 0-.29883.13383-.29883.29883v.17578h-.0332c-.12375 0-.22266.098906-.22266.22266s.09891.22461.22266.22461h.0332v.89062c-.6997.12062-1.2547.66779-1.375 1.3691h-.45312V4.1943c0-.1225-.0982-.22461-.2207-.22461-.12375 0-.22461.10211-.22461.22461v.046875h-.20312c-.1575 0-.2832.12766-.2832.28516 0 .15625.1257.2832.2832.2832h.20312v.035156c0 .1225.10086.22266.22461.22266.1225 0 .2207-.10016.2207-.22266v-.035156h.45508c.11921.70201.67205 1.2503 1.373 1.3711v2.9336c-.40116.0066-.75586.025391-.75586.025391-.02.085-.30352.038281-.41602.17578-.15875.19125-.10742.24148-.10742.49023 0 .2475-.03711.24664-.03711.49414s.04102.22234.04102.49609c0 .16-.0059.33609-.0059.49609 0 .06875.0088.12031.01758.16406-.30625.06-.67406.23203-.85156.33203-.185.105-.37062.20508-.54688.33008-.1775.125-.34867.26125-.51367.40625-.16875.14625-.32617.3057-.48242.4707s-.26516.41781-.41016.60156c-.14375.18375-.3375.27391-.46875.47266-.1325.2-.23992.42367-.35742.63867-.11625.21375-.24711.41508-.34961.64258-.10125.22625-.1982.45852-.2832.69726-.08625.2375-.13633.49539-.20508.74414-.06875.24625-.14992.48789-.20117.74414-.05125.2525-.09516.51024-.12891.77148-.0325.2575-.04234.52797-.05859.79297v.02344c-.03875.07625-.06734.06117-.15234.07617-.26625.04625-.26711.03492-.53711.04492s-.41016.03516-.41016.03516.0039.29289.0039.58789-.0039.29555-.0039.5918c0 .295-.01953.29484-.01953.58984 0 .29625.03125.2968.03125.5918 0 .29625.0039.29555.0039.5918s-.02734.58203-.02734.58203-.07539.01234-.18164.02734c-.275 0-.79672.0091-1.0117-.03711-.27125-.0575-.45156-.0055-.47656.06445-.02375.07125.03727.21305.13477.43555.0975.22375.09906.16031.19531.38281.09875.22375.08148.23133.17773.45508.09625.22125.09453.2218.20703.43555l.01758-.03516c0 .04875.002.09398.002.14648 0 .18125-.0293.38-.0293.59375-.0012.1875.01758.385.01758.59375-.0012.19-.0039.38875-.0039.59375 0 .1925.0039.39195.0039.5957-.0012.19375.01172.3932.01172.5957-.0013.195-.02539.3925-.02539.59375-.0012.19625.01953.3957.01953.5957-.0012.19625-.0046.3957-.0059.5957 0 .19875-.002.39695-.002.5957-.0012.19875.01367.39695.01367.5957-.0013.2-.02414.39695-.02539.5957 0 .20125-.02023.40016-.02148.59766 0 .20125.05273.39945.05273.5957-.0025.20375-.0059.40266-.0059.59766 0 .20375-.04297.40391-.04297.59766-.0012.20625.0071.40445.0059.5957 0 .20875-.01758.40695-.01758.5957 0 .21375.04031.41445.03906.5957 0 .22625-.03125.42695-.03125.5957-.0012.37625.002.57031.002.57031s-.22609.02531-.46484.03906c-.2725 0-.60297-.0021-.76172-.03711-.27-.0575-.45156-.0036-.47656.06641-.0225.07125.03922.21109.13672.43359.09625.22375.09711.16102.19336.38477.0975.2225.08219.22938.17969.45312.0975.22125.09258.22375.20508.4375l.0078-.01563v.15625c.0012.305.01758.30508.01758.61133.0012.30625-.0039.30703-.0039.61328.0012.30625-.0078.30703-.0078.61328.0012.3075.0039.30633.0039.61133.0012.30625.01367.30703.01367.61328 0 .2926.0098.31717.01172.58594-.02262-.02188-.04611-.04435-.06836-.06641-.145-.145-.28344-.29344-.42969-.42969-.1475-.14-.31219-.26203-.46094-.39453-.1525-.13625-.28695-.28852-.43945-.41602-.15625-.13125-.32812-.24148-.48438-.36524-.16-.12875-.31195-.26406-.4707-.38281-.16375-.12375-.32383-.24828-.48633-.36328-.1675-.11875-.34086-.22398-.50586-.33398-.1725-.11375-.34938-.21531-.51562-.32031-.17625-.10875-.34242-.22227-.51367-.32227-.0012-.0025-.0014-.0027-.0039-.0039-.09125-.05875-.18609-.12203-.27734-.17578-.185-.10875-.38109-.18766-.55859-.28516-.18875-.105-.35641-.23953-.53516-.33203-.1925-.09875-.40148-.14742-.58398-.23242-.1975-.0925-.38391-.18688-.56641-.26562-.205-.0875-.40023-.16047-.58398-.23047-.2125-.08125-.40664-.15094-.58789-.21094-.2275-.0775-.39344-.19211-.36719-.28711.0575-.20875.06711-.56656.06836-.57031.06875-.17875.0932-.29141.0332-.47266s-.13562-.06156-.29687-.16406c-.08875-.0575-.17078-.13039-.26953-.18164-.0062-.005-.0078.01336-.0078.0059-.015-.0775-.04656-.33375-.13281-.59375-.06875-.205-.17656-.39734-.28906-.52734-.14625-.17-.27609-.30992-.37109-.38867-.02375-.1375-.01328-.23274-.05078-.45898-.0025-.02-.06289-.37164-.11914-.74414-.005-.03375-.03125-.13625-.03125-.28125 0-.22.01859-.52711.02734-.81836.11375-.1275.22461-.34875.22461-.71875 0-.035.01227-.06992.0098-.10742-.0225-.26375.0062-.23805-.01758-.5293-.015-.17-.06242-.3568-.07617-.5293-.02125-.24625-.0028-.45148-.0078-.52148.07625-.1075.16695-.28883.25195-.48633.07375-.165.12305-.34875.12305-.53125 0-.08625-.02008-.16219-.04883-.24219-.0475-.12875-.10852-.31242-.22852-.48242-.1025-.1425-.25398-.26078-.36524-.39453-.135-.16125-.24719-.31781-.33594-.41406.03-.27875.10312-.62672.17188-.76172.06375-.12625.0625-.28976.0625-.44726 0-.17625-.02852-.35562-.10352-.51563-.0675-.1425-.15844-.26688-.27344-.35937-.11625-.09375-.26031-.14203-.41406-.17578-.38125-.08625-.64297.0047-.79297.11719-.15375.11625-.26188.27523-.32812.42773-.1075.24375-.13742.48469-.13867.52344 0 .0025.01172-.0052.01172-.0039-.045.15625-.10094.33234-.14844.49609-.065.225-.09594.43211-.11719.50586-.0875.08125-.22492.20039-.35742.36914-.09375.11875-.19976.25867-.29102.41992-.08.14-.14914.29805-.21289.4668-.08.2125-.30664.54797-.30664.73047 0 .225.09203.41664.17578.58789.09625.1975.22359.36633.37109.48633.06125.29-.01367.2975-.01367.59375s.17773.16203.17773.45703c0 .29625-.01563.29625-.01563.59375v.59375c0 .29625.03672.08695-.01953.37695-.13375.10875-.31774.26484-.45898.46484-.135.18875-.13867.64305-.13867.87305 0 .1375.01461.2582.03711.37695-.09875.05375-.34992.0257-.45117.2832-.105.27.04523.27961.08398.56836s.09188.29078.07813.58203c-.105.04375-.16156-.007-.25781.04297-.2025.10375-.3318.05133-.4043.26758-.07125.22-.04141.36156.05859.57031.0025.0025.23781.24695.10156.5332-.05125.11-.21641.21734-.44141.27734-.1775.0475-.36422.12516-.57422.19141-.18.05625-.37562.10453-.57812.17578-.1825.06375-.37992.11391-.57617.19141-.18125.07-.35312.18117-.54688.26367-.17875.07625-.38226.11828-.57226.20703-.1775.0825-.35602.17774-.54102.27148-.175.08875-.34289.20398-.52539.30273-.17375.09375-.36352.16969-.54102.27344-.1725.10125-.33797.21742-.51172.32617-.17.10375-.34438.20531-.51562.32031-.165.11-.33836.21523-.50586.33398-.1625.115-.32328.23758-.48828.36133-.15875.12-.30875.25531-.46875.38281-.15625.125-.32687.23469-.48437.36719-.15125.12875-.28891.27781-.44141.41406-.15.13375-.31219.25328-.46094.39453-.145.13625-.28274.28594-.42774.42969-.1425.14125-.29164.27633-.43164.42383-.13875.14375-.27195.29922-.4082.44922-.13375.14875-.27305.29688-.4043.45312-.1325.15125-.23133.33148-.36133.49023-.12625.155-.28711.28602-.41211.44727-.1225.1575-.24469.31867-.36719.48242-.1175.16125-.20992.34422-.32617.51172-.115.16375-.23977.32414-.35352.49414-.11.16625-.21617.33922-.32617.51172-.10625.16875-.19844.35039-.30469.52539-.10375.17125-.21195.34203-.31445.51953-.09875.17375-.20984.34078-.30859.51953-.16125-.03125-.34898-.03492-.55273.01758-.13625.035-.30977.10094-.47852.24219-.1175.1-.25562.22375-.35938.40625-.15375.2675-.1875.53359-.1875.77734 0 .1125-.01812.22774.01563.33398.05375.17.16125.28461.25.38086-.015.10125-.03492.20992-.04492.32617-.235.005-.54586.06984-.69336.40234-.05375.12125-.08008.25617-.08008.38867 0 .1675.06813.34312.10938.48438-.13.125-.24016.28836-.31641.47461-.06875.17-.1525.34922-.1875.54297-.035.18875-.03242 3.004-.04492 3.209-.01125.22375-.0077.4368-.0039.62305.0012.05375.0046.10164.0059.15039h2.0098c-.0025-.19-.01172-.38547-.01172-.57422 0-.22875-.0098-.45094-.0098-.64844 0-.27875-.0293-2.9661-.0293-3.0898 0-.2675-.46484-.78125-.46484-.78125.13375-.23625.44297.33148.88672.24024.2875-.05875-.27969-.34961-.24219-.53711.025-.1275.34195-.13109.5332-.12109.11625.325-.06172.3632.05078.68945.075.225.22805.07445.4043.25195.105.105.19602.25226.22852.41602.03125.16.03828.36133.05078.58008.01125.18125.01508.37758.01758.58008.0025.19125-.01508.38508-.01758.58008-.005.19875.01531.39578.0078.58203-.0075.2125-.04594.40812-.05469.57812-.0037.0575-.0039.10359-.0039.15234-.0012.03-.002.05375-.002.0625 0 .09875-.06828.67031-.11328 1.0391h2.1465c0-.01.000703-.01859.002-.02734.005-.17-.01055-.37086.002-.59961.01-.18125.03453-.3807.05078-.5957.01375-.1875.04516-.3857.06641-.5957.0175-.18875.02633-.38945.04883-.5957.0225-.19125.02914-.3907.05664-.5957.02625-.1925.07742-.38539.10742-.58789.02875-.19375.07367-.38859.10742-.58984.03375-.19375.06797-.38914.10547-.58789.0375-.19375.04078-.3975.08203-.59375.04125-.1925.08461-.38898.13086-.58398.04625-.1925.13875-.37726.1875-.57226.05-.1925.05758-.39609.11133-.58984.055-.19.14312-.37516.20312-.56641.05875-.19.11078-.38227.17578-.57227.0875-.18375.16742-.38203.26367-.58203.08875-.185.20117-.36625.29492-.5625.09125-.18625.15305-.39289.24805-.58789.09125-.18875.18555-.37976.2793-.57226.09375-.18875.23508-.35758.33008-.54883.095-.19.14594-.40055.24219-.5918.09625-.19.21555-.36984.31055-.55859.09875-.19.17008-.39383.26758-.58008.1175-.17125.25516-.32969.37891-.49219.125-.1675.26188-.32297.39062-.48047.13125-.1625.26664-.31961.40039-.47461.1375-.1575.25774-.32656.39648-.47656.14125-.1525.31062-.27812.45312-.42188.1475-.15.27438-.31633.42188-.45508.15125-.145.30117-.28688.45117-.42188.1575-.14125.32352-.26328.47852-.39453.16125-.13625.32742-.26172.48242-.38672.1675-.13375.33664-.25305.49414-.37305.1725-.13.32633-.26711.48633-.38086.17875-.1275.35758-.23164.51758-.33789.1875-.125.3425-.26453.5-.36328.005-.0025.01453.01187.01953.01563.005-.0038.17398-.12664.55274-.27539.16125-.0625.36726-.09711.60352-.16211.18-.05.37336-.14375.59961-.1875.19-.03625.3993-.04156.62305-.07031.19375-.02375.38102-.03969.60352-.05469.10625.2875-.0039.29727-.0039.60352 0 .3075.01367.30898.01367.61523s.01758.30508.01758.61133c0 .3075-.0098.30773-.0098.61523 0 .30625.0293.30703.0293.61328s-.04687.30578-.04687.61328.02148.30703.02148.61328c0 .305.01758.30508.01758.61133s-.02539.30703-.02539.61328c0 .3075.02148.30703.02148.61328s-.03516.30703-.03516.61328.04297.30578.04297.61328c0 .30625-.02148.30508-.02148.61133s.01953.30703.01953.61328c0 .3075-.03711.30703-.03711.61328s.03125.30578.03125.61328-.01367.30898-.01367.61523c0 .3075-.0078.30703-.0078.61328 0 .3075-.0039.30774-.0039.61524 0 .30625-.0098.30508-.0098.61133 0 .3075.04492.30773.04492.61523 0 .30625-.01758.30703-.01758.61328 0 .30875-.01953.30774-.01953.61524 0 .30625.002.30773.002.61523s.02539.30773.02539.61524c0 .3075-.02539.30703-.02539.61328s.002.30578.002.61328-.0098.24898-.0098.61523c0 .18.0098.38953.0098.61328 0 .19875.01563.40844.01563.61719s-.0332.41844-.0332.61719v.01172h.98047v-.01172c0-.30625.0059-.30578.0059-.61328s-.04102-.30773-.04102-.61523.01758-.30703.01758-.61328c0-.3075.0078-.30703.0078-.61328 0-.30875.0098-.30898.0098-.61523s-.04687-.30703-.04687-.61328c0-.3075.04297-.30703.04297-.61328s-.01367-.22328-.01367-.61328c0-.17375-.01563-.38148-.01563-.61523 0-.1875-.01172-.39273-.01172-.61523 0-.1925.01953-.39828.01953-.61328 0-.1975.0293-.40273.0293-.61523 0-.19875-.002-.40328-.002-.61328 0-.2-.04492-.40453-.04492-.61328 0-.20125.0039-.40648.0039-.61524 0-.2025-.0039-.40773-.0039-.61523 0-.2025.02344-.40703.02344-.61328 0-.20375-.0078-.40898-.0078-.61524 0-.20375-.01172-.41094-.01172-.61719 0-.205.02344-.41024.02344-.61524 0-.20625-.01172-.41023-.01172-.61523 0-.20625-.0059-.41148-.0059-.61524 0-.2075.04102-.41469.04102-.61719 0-.20875-.01172-.41469-.01172-.61719 0-.21-.0039-.41398-.0039-.61524 0-.21125-.02734-.41914-.02734-.61914 0-.2125.01172-.41703.01172-.61328 0-.2175-.0098-.42344-.0098-.61719 0-.22.0332-.42578.0332-.61328 0-.23375-.01953-.44078-.01953-.61328 0-.39-.0045-.5225.12305-.625.2175-.175.44922.03984.76172.05859.11.05375.29867.13578.54492.26953.15625.085.3325.19094.53125.30469.165.095.34961.18703.53711.30078.165.10125.33172.21773.51172.33398.16625.10625.34914.20156.52539.32031.16375.1125.31438.25711.48437.38086.1625.1175.33766.22141.50391.34766.1625.1225.31656.26062.47656.39062.1575.12875.30789.2693.46289.4043.15375.135.31289.265.46289.40625.1475.14.30281.27633.44531.42383.145.1475.30516.27914.44141.43164.135.155.23703.33805.36328.49805.12875.16125.2568.32273.37305.49023.065.0925.16016.18625.25391.28125.01125.025.02297.04758.04297.08008.10125.16625.35078.46273.45703.64648.10375.1775.18281.37797.28906.57422.10625.1925.22914.38305.33789.5918.10625.20625.205.42594.3125.64844s.205.45977.3125.69727c.10875.24.22508.48398.33008.74023.1075.26.22633.52258.33008.79883.1075.2825.24055.56383.3418.86133.10375.305.25586.57328.34961.89453.1.3325.20156.67398.28906 1.0215.08759.35035.22727.69371.30273 1.0586.000129.000622-.000128.0013 0 .002-.000121.27709-.01758.27832-.01758.55859.0012.28.01758.28125.01758.5625 0 .07212.000123.18087 0 .26562-.16998-.0041-.36258-.000396-.45898-.02148-.27-.05625-.44961-.0048-.47461.06641-.02375.07.03727.21109.13477.43359.0975.22375.09781.16227.19531.38477s.08024.23062.17774.45312c.05857.13367.29901.47533.52734.79883.0031.18793-.000173.38552-.01367.43555l.04492.71484-.04492.66797c.0037.06375 0 .63352 0 .75977 0 .28625-.08984.55945-.08984.8457.0012.28625.17773.53711.17773.53711s1.3697.0875 1.4297 0c.06-.09.58008.16148.58008-.13476 0-.295-.04492-.23891-.04492-.53516s-.04492.02867-.04492-.26758.04492-.06039.04492-.40039v-.89453c0-.205.04492-1.0231.04492-1.2031 0-.34.17359-2.3323.08984-2.4336-.0725-.08625-.0078-.19867-.0078-.48242 0-.28625.01758-.28656.01758-.57031 0-.28625.01758-.28531.01758-.57031s-.02148-.28461-.02148-.56836c0-.28625.02734-.28602.02734-.57227 0-.285-.02344-.28672-.02344-.57422 0-.285-.06078-.37859.07422-.49609.09125-.08.21461-.06641.50586-.06641.29 0 .28938-.0039.57813-.0039.2925 0 .29203.01953.58203.01953s.24078-.0078.58203-.0078c.175 0 .37398-.02148.58398-.02148.19125 0 .38953.0078.58203.0078.2075 0 .40828-.0078.58203-.0078h.56641s.10469-.31633.05469-.54883c-.06375-.28375-.32984-.1875-.62109-.1875-.29 0-.22883.02148-.58008.02148-.17 0-.36758.002-.58008.002-.185 0-.38008.01172-.58008.01172-.195 0-.39148-.03711-.58398-.03711-.20125 0-.39898.0332-.58398.0332-.215 0-.41203-.02734-.58203-.02734-.35125 0-.49844.03992-.55469-.11133-.1075-.27875-.0039-.17976-.0039-.47852 0-.29875-.04492-.29891-.04492-.59766 0-.2975.0293-.29625.0293-.59375 0-.29875.002-.30016.002-.59766 0-.29875-.03125-.29891-.03125-.59766s.02734-.2982.02734-.5957c0-.3.0098-.22516.0098-.59766 0-.17125.01172-.37266.01172-.59766 0-.185-.04492-.38516-.04492-.59766v-.5957c0-.19375.04102-.39391.04102-.59766 0-.19625.002-.39641.002-.59766 0-.19875-.0293-.39891-.0293-.59766 0-.20125-.0098-.40211-.0098-.59961 0-.20375.02734-.40391.02734-.59766 0-.2075-.01563-.40641-.01563-.59766 0-.2125.02539-.41461.02539-.59961 0-.225-.04102-.4257-.04102-.5957 0-.3725-.25336-.47188.02539-.57812.27625-.105.28648.002.58398.002s.2975-.0098.59375-.0098.29625-.02734.59375-.02734.2975.02148.59375.02148c.29875 0 .29945.01367.5957.01367.29875 0 .29945-.0078.5957-.0078.2975 0 .2975-.02148.59375-.02148.2975 0 .29625.03516.59375.03516s.2982-.03906.5957-.03906.2982.0059.5957.0059.2975.02148.59375.02148c.29875 0 .2982-.03906.5957-.03906s.2982.04883.5957.04883.22125-.01172.59375-.01172c.16875 0 .3707-.0039.5957-.0039.18375 0 .3832-.0332.5957-.0332.19 0 .3875.04687.59375.04687h.59571c.19625 0 .3957-.04492.5957-.04492.1975 0 .3957.01563.5957.01563h.59766c.2025 0 .40141.02344.59766.02344.20375 0 .40195-.01758.5957-.01758.2075 0 .40765-.0078.59765-.0078.2125 0 .41391-.0059.59766-.0059.22625 0 .42766-.0098.59766-.0098.37125 0 .42218-.05266.39843.02734-.0862.28625-.004.29625-.004.59375 0 .29875-.0117.29891-.0117.59766 0 .2975.0449.29695.0449.5957 0 .2975-.0156.29891-.0156.59766s-.002.2982-.002.5957c0 .29875.0195.29891.0195.59766 0 .2975-.0449.22516-.0449.59766 0 .17.006.37266.006.59766 0 .18375.0352.3832.0352.5957 0 .19125-.0449.39016-.0449.59766 0 .19375.008.39266.008.59766 0 .195.0195.39445.0195.5957 0 .19875-.002.40086-.002.59961 0 .20125-.0176.40016-.0176.59766 0 .20375.0449.40391.0449.59766 0 .2075-.0312.40836-.0312.59961 0 .2125.0137.41266.0137.59766 0 .225-.01.42766-.01.59766 0 .3725.006.61328.006.61328s-.11391-.002-.41016-.002c-.295 0-.29555-.02539-.5918-.02539s-.29625.0039-.59375.0039c-.295 0-.29484-.01758-.58984-.01758-.2975 0-.2975.04492-.59375.04492s-.29625-.01758-.59375-.01758-.58399.0059-.58399.0059-.11921.63461-.0117.72461c.10625.08875.2975.002.59375.002.295 0 .29554-.01953.59179-.01953s.29555.04102.5918.04102.2968-.04492.5918-.04492c.29625 0 .29625.04102.59375.04102s.2975-.03125.59375-.03125.30578-.0066.36328.06836c.0563.075.0215.22672.0215.51172 0 .28375-.004.28406-.004.57031v.56836c0 .285.041.28531.041.57031s-.0234.28602-.0234.57226c0 .285.0117.28406.0117.57031s-.0141.53758-.0254.64258l.0508.54102s.0966 1.4555.10157 1.6055c.002.105.041 2.2062.041 2.5137 0 .30625-.004 1.8656-.004 2.1719 0 .30625-.008 4.5968-.008 4.9043 0 .30625-.006 6.1918-.006 6.498 0 .3075.0354 3.7354.0566 3.8379.0213.1025.59633-.01758.83008-.01758s.44578.11062.48828.01563c.0438-.0975-.0332-3.4965-.0332-3.8027 0-.30625.0273-6.1918.0273-6.498 0-.3075-.0273-4.5948-.0273-4.9023 0-.30625.0215-1.8656.0215-2.1719 0-.3075-.0555-2.2595-.0293-2.5645.001-.01.0106-.36383.0156-.79883.0175-.03875.0382-.08453.0645-.14453.11875-.27125.098-.28344.21679-.55469.11875-.2725.11953-.195.23828-.46875.11875-.27125.19602-.44375.16602-.53125-.03-.085-.25203-.15203-.58203-.08203-.27.05875-.39844.05891-.49219.06641l.0117-.29492c0-.3025.0137-.30102.0137-.60352s-.002-.30297-.002-.60547c0-.30375.002-.30492.002-.60742s-.0156-.30172-.0156-.60547.002-.30367.002-.60742-.0156-.30367-.0156-.60742c0-.3025.0195-.30172.0195-.60547 0-.3025-.0137-.30367-.0137-.60742 0-.3025-.0176-.30172-.0176-.60547s-.004-.30438-.004-.60938c0-.3025.043-.30172.043-.60547s-.0273-.30367-.0273-.60742-.0156-.30367-.0156-.60742.0156-.30367.0156-.60742.0313-.30562.0313-.60938c0-.30375-.0352-.30367-.0352-.60742v-.60742c0-.30375.0195-.30367.0195-.60742s.008-.30438.008-.60938c0-.30375-.006-.30367-.006-.60742s.0156-.30367.0156-.60742-.0469-.30367-.0469-.60742.0449-.30438.0449-.60938c0-.30375-.004-.30242-.004-.60742 0-.25125-.0291-.29906-.0391-.47656.0125-.03.0262-.05781.0449-.10156.0975-.2225.0802-.23062.17773-.45312.0975-.2225.0991-.15906.19532-.38281.0987-.2225.15976-.3643.13476-.43555-.0238-.07-.20586-.12391-.47461-.06641-.28375.06125-.37914.04305-.46289.06055v.0039c-.14375.0087-.27742.01742-.35742-.04883-.22875-.19125-.11133-.22859-.11133-.52734s.0117-.29891.0117-.59766.006-.21695.006-.5957c0-.16875.0352-.36891.0352-.59766 0-.1825-.041-.38266-.041-.59766 0-.18875-.01-.38891-.01-.59766 0-.1925.0352-.39141.0352-.59766 0-.19375.002-.39195.002-.5957 0-.195.006-.39586.006-.59961 0-.195-.0156-.39516-.0156-.59766 0-.1975-.0195-.39836-.0195-.59961 0-.1975.0117-.39695.0117-.5957 0-.20125.004-.40156.004-.60156s-.006-.39891-.006-.59766c0-.20125.0195-.40086.0195-.59961 0-.2025-.0332-.40406-.0332-.60156 0-.20375.0137-.40336.0137-.59961 0-.205.008-.40391.008-.59766 0-.2075-.0137-.40906-.0137-.60156 0-.20875.0215-.40891.0215-.59766 0-.135-.007-.26227-.0137-.38477.0125-.03125.0269-.06312.0469-.10938.0975-.2225.0802-.23062.17773-.45312.0962-.2225.0978-.16031.19532-.38281.0975-.2225.15851-.3643.13476-.43555-.025-.07-.20461-.12391-.47461-.06641-.10125.02125-.17312.03156-.23437.03906-.1075-.0012-.25891-.002-.41016-.002-.2825 0-.25851.06414-.47851.02539-.0738-.01375-.0824-.26359-.0762-.62109.004-.17625.0327-.38016.0352-.59766.002-.19375-.01-.39781-.01-.60156.001-.20375-.0124-.40711-.0137-.59961-.001-.21875-.0289-.42531-.0351-.60156-.0113-.32875-.0449-.58203-.0449-.58203s-.0305-.009-.0742-.02148l.0937-.002s-.28352-.09305-.50977-.0918c-.265.0013-.51562-.06836-.51562-.06836v-.05664c-.015-.2625-.0241-.39148-.0566-.64648-.0338-.25875-.0777-.51562-.12891-.76562-.05-.25375-.11875-.50039-.1875-.74414-.0662-.245-.15844-.47984-.24219-.71484-.085-.23625-.1832-.46055-.2832-.68555s-.20071-.44961-.31446-.66211c-.11624-.2125-.22476-.43141-.35351-.62891-.13-.19875-.27156-.3832-.41406-.56445-.14125-.18375-.21344-.29398-.36719-.45898-.1525-.165-.39359-.37524-.55859-.52148-.16375-.14625-.32305-.30219-.49805-.42969-.1725-.12625-.36242-.20625-.54492-.3125-.18-.105-.36789-.19359-.55664-.27734-.245-.10875-.59789-.17008-.90039-.20508.005-.0375.0078-.07922.0078-.13672 0-.23625.0078-.23641.0078-.47266s.0098-.23711.0098-.47461.0078-.23711.0078-.47461c0-.23625.05227-.2543-.05273-.4668-.0575-.11625-.30172-.084062-.48047-.13281-.13698-.037261-.35607-.053492-.5957-.0625v-2.9453c-.05792.010938-.11397.026413-.17383.03125l-.018-.5983c.0696-.00754.13019-.038451.19531-.058594v-.73633h.7207c.02541-.091807.05273-.18344.05273-.2832 0-.1008-.02725-.19267-.05273-.28516h-.7207v-.73828c-.05858-.018001-.11144-.04669-.17383-.054687l.01758-.59961c.055.00375.1075.011484.15625.021484v-.88867h.01953c.12375 0 .22461-.10086.22461-.22461s-.10086-.22266-.22461-.22266h-.01953v-.17578c.001-.16495-.132-.29878-.298-.29878zm.29883 1.8105v.63281c.35352.10864.6222.38077.7207.73828h.62695c-.119-.6928-.659-1.241-1.348-1.3711zm1.3477 1.3711c.01591.093128.02539.1874.02539.28516 0 .096937-.01156.1907-.02734.2832h.45508v-.56836h-.45312zm.45312 0h.44531V4.1943c0-.1225-.10016-.22461-.22266-.22461-.12375 0-.22266.10211-.22266.22461v.046875zm.44531 0v.56836h.20312c.15875 0 .28516-.12695.28516-.2832 0-.1575-.12641-.28516-.28516-.28516h-.20312zm0 .56836h-.44531v.035156c0 .1225.09891.22266.22266.22266.1225 0 .22266-.10016.22266-.22266v-.035156zm-.90039 0h-.625c-.09865.35643-.36887.6275-.7207.73633v.62891c.688-.1299 1.227-.6738 1.345-1.3652zm-1.9434-1.3145v.74609h-.74805c.1-.3659.381-.6436.747-.7461zm-.747 1.3145h.74609v.74414c-.366-.1018-.645-.3775-.746-.7441zm.70313 5.0918c.25375-.0175.25476.027422.50976.044922.2375.015.31484-.13617.46484.048828.1625.20125-.01172.25297-.01172.51172s.01953.25883.01953.51758c0 .17625.04172.2418.04297.3418l-1.0586.03906c-.0225-.16625.01289-.21453.02539-.45703.015-.29625.06586-.23508-.02539-.51758-.09125-.2875-.19961-.22023-.44336-.39648-.01375-.01-.0091-.031406.0059-.035156.235-.04875.23195-.082656.4707-.097656zm.50781 2.1055c.2075 0 .41148.04867.61523.07617.2075.03.41524.04211.61524.09961.205.0575.39805.16305.5918.24805.19875.08625.39648.1668.58398.2793s.37133.24016.54883.37891c.18.13875.36179.27305.52929.43555.165.1625.29938.37359.45313.55859.15125.185.29734.37508.43359.58008.1375.205.27133.45594.39258.67969.11875.22125.21781.41359.32031.65234.1.2375.22735.45844.3086.71094.0813.25.12109.52266.18359.78516.0625.26.11821.51906.1582.78906.04.26625.0821.51992.0996.79492-.0525.02375-.0921.03813-.13085.04687l-.2168.002c-.0712-.01375-.14821-.03516-.2832-.03516-.31626 0-.31727.02539-.63477.02539s-.31656-.05273-.63281-.05273c-.3175 0-.31922.0293-.63672.0293-.31625 0-.31602-.0078-.63477-.0078-.3175 0-.24602-.0098-.63476-.0098-.1825 0-.39781.01367-.63281.01367-.19875 0-.41352.0059-.63476.0059-.20625 0-.41922.0098-.63672.0098-.21 0-.42352-.01758-.63477-.01758-.21625 0-.43047-.0098-.63672-.0098h-.63672c-.23625 0-.45602-.02242-.63477.01758-.10625.025-.21055-.0084-.31055.0078-.0575-.07625-.10305-.12125-.12305-.25-.03125-.21125.02867-.38883.01367-.58008-.01375-.18625.04984-.32172.08984-.82422.02-.24625.02219-.53484.05469-.83984.0275-.2675.07258-.54578.11133-.83203.02125-.16375.12578-.68367.39453-1.1387.14-.24.45438-.69578.57812-.80078.08-.0675.36836-.33945.63086-.50195.25389-.15643.48389-.15994.60938-.16016l.0039.11719c0 .22.0098.21875.0098.4375 0 .22.01172.22141.01172.44141s-.0059.21875-.0059.4375c0 .22.02148.22141.02148.44141 0 .21875-.03516.2175-.03516.4375s.01563.2207.01563.43945c0 .22.01367.21875.01367.4375s-.01953.21945-.01953.43945.01563.2207.01563.43945c0 .22-.02539.21945-.02539.43945 0 .21875.04297.69992.04297.91992 0 0 .54766.0675.62891 0 .08125-.06875.01851-.80438.0098-.92188-.0125-.1475-.0098-.29516-.0098-.44141 0-.1475-.0039-.29445-.0039-.43945 0-.14875.0293-.29766.0293-.44141 0-.15-.0098-.29836-.0098-.44336v-.44141c0-.15125-.01953-.29766-.01953-.44141 0-.15125.0059-.30016.0059-.44141 0-.15375-.0039-.30266-.0039-.44141 0-.1575.02148-.30445.02148-.43945 0-.1675-.01953-.59891-.01953-.72266 0-.2341-.41972-.1936-.57812-.17383-.22467-.02236-.48444-.01975-.58789-.0059-.355.045-.51476.08086-.69727.16211-.18375.08125-.36141.14227-.50391.22852-.1325.08-.36125.21586-.9375.84961-.05.0425-.10109.08672-.15234.13672-.15625.15625-.30445.36016-.4707.56641-.14625.1825-.31648.35773-.45898.58398-.13.20625-.23156.45617-.35156.70117-.11.225-.22992.45875-.32617.71875-.09.2425-.1443.51531-.2168.78906-.06875.25375-.15117.51047-.20117.79297-.0375.215-.06484.44453-.08984.67578-.025.0087-.05102.01609-.07227.02734-.29.135-.32461.14-.50586.0625.0175-.275.04594-.55922.08594-.82422.04125-.27125.06766-.54469.12891-.80469.0625-.2625.17141-.50195.25391-.75195.08125-.2525.15266-.51055.25391-.74805.10125-.23875.19836-.48648.31836-.70898s.26414-.42586.40039-.63086c.1375-.205.28109-.40484.43359-.58984.15125-.18375.3057-.37141.4707-.53516.16625-.1625.3532-.28898.5332-.42774.17875-.13875.35812-.27492.54688-.38867.1875-.11125.38258-.20867.58008-.29492.195-.085.39977-.13977.60352-.19727.2-.0575.40312-.11578.60938-.14453.20375-.02875.4118-.04687.62305-.04687zm1.2031.83203c-.03602.0013-.05469.01898-.05469.05664 0 .07875.17672.33539.35547.49414.1775.1575.86805.71 1.7168 2.4062.41375.83.84735 2.7022.96485 2.7422.11875.03875.73062.09891.67187-.05859-.06-.1575-.94851-2.8205-1.6973-3.8867-.65516-.93188-1.7049-1.7627-1.957-1.7539zm-4.5195 7.209c.295 0 .29555.03125.5918.03125s.29555.0039.5918.0039.29555-.02734.5918-.02734.2975.0078.59375.0078.2218-.0059.5918-.0059c.17 0 .37.02734.59375.02734.1825 0 .3818-.0332.5918-.0332.18875 0 .38875.0039.59375.0039.19125 0 .39055.02734.5918.02734.19625 0 .395-.002.59375-.002.1975 0 .395-.0059.59375-.0059.19876 0 .3975.01953.59374.01953.2025 0 .40001-.01172.59376-.01172.20624 0 .40499-.01758.59374-.01758.2125 0 .41-.0059.59376-.0059.22374 0 .42499.0059.59374.0059.36875 0 .55665-.02172.55665.08203 0 .3375.0117.26406.0117.60156 0 .33875.0352.34023.0352.67774 0 .33875-.01.33828-.01.67578s-.0137.43156-.0137.57031c0 .20625-.30273.10938-.61523.10938-.31125 0-.31055-.01172-.62305-.01172s-.3132-.0078-.62695-.0078c-.3125 0-.3125.0078-.625.0078s-.31125.002-.625.002c-.31125 0-.31125.0078-.625.0078-.3125 0-.3125-.0098-.625-.0098-.31375 0-.31375.02344-.625.02344-.31375 0-.31375-.04102-.625-.04102-.31375 0-.31445.002-.62695.002s-.3132.03906-.62695.03906c-.3125 0-.3125-.01367-.625-.01367-.31375 0-.3132.01172-.62695.01172s-.31445-.03516-.62695-.03516c-.195 0-.15586.08664-.50586-.0059-.29125-.0775-.1468-.27226-.1543-.57226s-.07859-.48477.0039-.60352c.04375-.0625.29484.0059.58984.0059s.29414-.0059.58789-.0059c.295 0 .22859.02539.58984.02539.17 0 .36984.0039.58984.0039.1825 0 .38359-.03516.58984-.03516.19 0 .38789.03125.58789.03125.19625 0 .39484-.0039.58984-.0039.20125 0 .3993-.02148.5918-.02148.20625 0 .40609.02148.58984.02148.22 0 .41984-.01367.58984-.01367.3625 0 .51898.02555.64648-.0957.125-.11875.1032-.69625-.0606-.78125 0 0-.2936-.0078-.58984-.0078h-.58984c-.295 0-.29359.01953-.58984.01953s-.2968.01172-.5918.01172-.29609-.03906-.58984-.03906c-.29625 0-.29484.0098-.58984.0098-.29625 0-.2975.0059-.59375.0059-.295 0-.29484-.0098-.58984-.0098-.29625 0-.29555-.002-.5918-.002s-.29555.0098-.5918.0098-.2975.01758-.59375.01758c-.30125.0012-.30156-.02664-.60156-.02539-.30125.0012-.30031.0066-.60156.0078s-.30227.0053-.60352.0078c-.30125 0-.30031-.0012-.60156 0s-.60547.01172-.60547.01172-.31805-.63469.002-.64844c.13625-.0063.2968-.0078.5918-.0078.29625 0 .29555.01172.5918.01172.295 0 .29555-.0039.5918-.0039s.29555-.02734.5918-.02734zm-2.8223 3.6406c.05437.0014.11367.02344.26367.02344h.59766c.2975 0 .29891-.01172.59766-.01172s.29891.01172.59766.01172.29891-.0039.59766-.0039c.3 0 .29891.0059.59766.0059s.29961.002.59961.002c.2975 0 .29766.01563.59766.01563.29875 0 .29766.0078.59766.0078.29875 0 .29961-.02734.59961-.02734.29875 0 .29891.0078.59766.0078.3 0 .29961.01953.59961.01953.29875 0 .29766-.04883.59766-.04883.29875 0 .29961.02148.59961.02148.29875 0 .29961.0039.59961.0039.29875 0 .29836-.01563.59961-.01563.29875 0 .29766.03125.59766.03125.29875 0 .29891.002.59765.002.30001 0 .30086-.04102.59961-.04102.30125 0 .30086-.002.59961-.002s.29836.04297.59961.04297c.29875 0 .29836-.02148.59961-.02148.3 0 .30032-.0039.60156-.0039.3 0 .39649.13844.39649.24219 0 .2975.0469.20641.0469.50391 0 .3-.0117.29891-.0117.59766s.0117.29961.0117.59961c0 .29875-.0117.29766-.0117.59766 0 .29875.0508.29891.0508.59766 0 .3-.0254.30086-.0254.59961 0 .3-.0176.29891-.0176.59766s.0156.29961.0156.59961.0117.30086.0117.59961c0 .3.004.29891.004.59766s-.004.29961-.004.59961c0 .29875.008.29766.008.59766v.59961c0 .3-.0195.29961-.0195.59961 0 .29875.0293.29961.0293.59961 0 .30125-.01.29961-.01.59961s-.0176.60156-.0176.60156-.13336-.13867-.41211-.13867h-.5586c-.27875 0-.27789-.03125-.55664-.03125s-.27914.01563-.55664.01563c-.28 0-.27984-.0078-.55859-.0078-.28 0-.45992-.0557-.54492.0293-.0825.0875.004.79883.004.79883s.26031.02148.53906.02148c.27751 0 .27594-.03125.55469-.03125 0 0 .2811.01563.5586.01563.27875 0 .27789-.002.55664-.002.28 0 .27984.0078.55859.0078s.42383.13672.42383.13672.004.30953.004.61328-.0117.30367-.0117.60742.0178.51125-.0859.5625c0 0-.0704-.09766-.36914-.09766-.29875 0-.29766.02148-.59766.02148-.29875 0-.2989.0059-.59765.0059s-.29891-.0078-.59766-.0078-.2982-.0059-.5957-.0059c-.30125 0-.30086-.03125-.59961-.03125s-.29961-.0078-.59961-.0078c-.2975 0-.29766.04297-.59766.04297-.29875 0-.29766-.04297-.59766-.04297-.29875 0-.29961.04883-.59961.04883-.29875 0-.29961-.01758-.59961-.01758-.2975 0-.29641.01953-.59766.01953-.29875 0-.29961-.04297-.59961-.04297-.29875 0-.29766-.0059-.59766-.0059-.29875 0-.29891.0332-.59766.0332-.30125 0-.30086.0039-.59961.0039-.3 0-.30086-.0098-.59961-.0098-.3 0-.29961-.0039-.59961-.0039-.2975 0-.29766.0098-.59766.0098s-.29961-.01953-.59961-.01953c-.29875 0-.29836.01758-.59961.01758-.29875 0-.30031-.01563-.60156-.01563-.3 0-.29961-.01758-.59961-.01758-.30125 0-.21305.07547-.49805-.01953-.0775-.02625-.10742-.25805-.10742-.56055 0-.30375.06234-.31117-.0039-.60742-.07125-.3225.05344-.37195.08594-.5332.02625-.1275.21938-.05664.51562-.05664.29875 0 .30016-.0078.59766-.0078.29875 0 .2982-.02148.5957-.02148s.2975-.002.59375-.002c.3 0 .30016.0098.59766.0098.29875 0 .29891-.01563.59766-.01563s.52359.06734.65234-.03516c.13-.10375-.06445-.75977-.06445-.75977s-.28648-.01563-.58398-.01563-.2982-.01758-.5957-.01758c-.29875 0-.29891.03516-.59766.03516-.29625 0-.29695-.0078-.5957-.0078-.2975 0-.29695-.01953-.5957-.01953s-.2982.04102-.5957.04102c-.3 0-.1807-.0076-.4707-.08008-.1025-.02625-.10547-.24102-.10547-.54102 0-.29875-.01367-.29891-.01367-.59766 0-.3.0039-.22461.0039-.59961 0-.17.002-.37141.002-.59766 0-.18375-.02344-.38391-.02344-.59766 0-.19-.01563-.39086-.01563-.59961 0-.19375.03906-.39266.03906-.59766 0-.195.0078-.39516.0078-.59766 0-.19875-.01172-.39836-.01172-.59961 0-.2-.0293-.40031-.0293-.60156 0-.2.04102-.40281.04102-.60156 0-.2025-.02344-.40266-.02344-.59766v-.59961c0-.20875-.0098-.40961-.0098-.59961 0-.21375-.01172-.41656-.01172-.60156 0-.22625.04883-.42766.04883-.59766 0-.37625-.05258-.4518.07617-.5293.1275-.07688.17805-.09516.23242-.09375zm-14.609 1.1973c.02875.0025.04523.02055.08398.0293.12.02625.19625.09133.25.20508.07375.15375.0707.32789.0332.40039-.05125.10375-.0632.2607-.0957.4082-.04875.02625-.12641.05422-.16016.04297-.06875-.02375-.18508-.13906-.26758-.22656.0075-.02875.03617-.05633.04492-.08008.1625-.06375.36391.03922.34766-.14453-.03-.33625-.12883-.31477-.23633-.63477zm21.551.13867c-.18625.02125-.44336-.05797-.44336.17578s.31977.54336.41602.75586c.2125 0 .4268.03148.62305.08398.20125.05375.38234.14945.55859.25195.18.10375.36992.19555.51367.3418.1475.145.26344.32125.36719.5.1025.17875.19234.36781.24609.57031.05375.195.06641.40398.06641.61524 0 .3125-.002.3125-.002.625 0 .31375.02148.31445.02148.62695s-.04297.3125-.04297.625c0 .31375.04687.3125.04687.625 0 0-.04297.3125-.04297.625s.03125.3125.03125.625-.0098.3125-.0098.625c0 .31375-.02148.31445-.02148.62695v.625c0 .31375-.0032.31445-.002.62695 0 .315.03906.31445.03906.62695 0 .31375-.01953.63672-.01953.63672s.23696-.01172.47071-.01172c.2325 0 .31461.04609.41211-.06641.0962-.1125.0566-.24219.0566-.55469s.0117-.3125.0117-.625c0-.31375.0117-.31375.0117-.625 0-.31375-.0156-.2432-.0156-.62695 0-.18125-.0332-.39445-.0332-.62695 0-.19625.0195-.40625.0195-.625 0-.20375-.0137-.41445-.0137-.62695 0-.2075.0312-.4182.0312-.62695 0-.2125-.0312-.4225-.0312-.625 0-.22.0312-.4307.0312-.62695 0-.2325.006-.4457.006-.62695 0-.3825-.0195-.3125-.0195-.625 0-.195.003-.38992-.0312-.57617-.0325-.19125-.12641-.36617-.19141-.54492-.0675-.18125-.13156-.35844-.22656-.52344-.0975-.16625-.18094-.34594-.30469-.49219s-.29391-.2493-.44141-.37305c-.145-.12375-.28492-.25727-.45117-.35352s-.33633-.19547-.51758-.26172c-.1775-.065-.37125-.0925-.5625-.125-.18625-.0325-.36289-.06617-.55664-.04492zm-.26172 1.543c-.21125 0-.40891.03055-.59766.0918-.19625.06375-.38898.13516-.55273.25391-.16375.12-.30898.26859-.42773.43359-.12.16375-.23117.34281-.29492.53906-.0625.18875-.05078.39742-.05078.60742 0 .31-.01758.30914-.01758.61914s.0098.31109.0098.62109-.01563.24914-.01563.61914c0 .1825-.002.39484-.002.62109 0 .2.02148.40984.02148.62109s-.04297.42305-.04297.62305c0 .22625.04688.43859.04688.62109 0 .37125-.31805.52938-.0293.64062.3025.11625.33055-.0293.6543-.0293s.32469.0078.64844.0078.32273.02344.64648.02344.32469.002.64844.002h.64844c.32375 0 .40422.18859.63672-.03516.225-.21375.01953-.29938.01953-.60938 0-.30875-.0098-.30914-.0098-.61914s.01953-.31109.01953-.62109-.01563-.30914-.01563-.61914c0-.31125.0098-.31109.0098-.62109s.01172-.30984.01172-.62109-.01367-.31109-.01367-.62109c0-.31125-.0332-.3118-.0332-.62305 0-.21-.01492-.41086-.07617-.59961-.06375-.19625-.16836-.3675-.28711-.53125-.12-.165-.2425-.33047-.40625-.44922-.16375-.12-.35969-.1882-.55469-.25195-.18875-.06125-.385-.09375-.59375-.09375zm-21.074.32227c.005-.0038-.01477.01648-.0098.02148.1475.15625.36484.33125.52734.53125.2025.2475.35023.50586.39648.63086.04.115-.09891.49719-.31641.77344-.0062.0087-.01344.02484-.02344.02734-.27.0625-.5818.05164-.7168-.13086-.26-.345-.1957-.39774.0293-.33398.25125.07.21586.23898.47461.20898.1975-.02375.28539-.09922.24414-.29297-.06-.285-.18367-.21492-.38867-.41992s-.12406-.41016-.41406-.41016c-.44125 0-.43969.43281-.74219.47656-.12875.01875-.31406-.07773-.47656-.17773.0775-.165.19375-.29781.28125-.41406.175-.2325.31391-.37836.31641-.38086.0125-.01.0079.000156.02539.0039.0625.04625.13719.09977.24219.13477.145.04875.37953-.1143.55078-.24805zm-.5957 1.8496s.10453.36703.39453.58203c.15875.1175.76703.18945.76953.18945.03125.33625.02594.2218.05469.56055.02875.3375.02914.33633.05664.67383.02.28375-.13664.36891-.15039.37891-.05875.045-.07899.03656-.11524.10156-.03875.07-.02625.08211-.03125.16211-.0075.27125-.0046.50742-.0059.70117-.0037.3825.0015.61727.02148.69726.0525.325.0775.32148.125.64648.0025.015.03711.30633.06836.48633-.2125.09625-.22703.0088-.45703.01758-.23125.01-.23469.08445-.46094.0332-.3575-.0825-.39094-.2118-.64844-.3418-.15625-.0775-.43797.01484-.63672.08984-.02625-.12-.03711-.2582-.03711-.3457 0-.04625-.01391-.09469-.0039-.11719.14875-.20625.42008-.33859.42383-.33984.10625-.06875.14969-.03719.21094-.14844.0625-.1125.01563-.13422.01563-.26172.0012-.07625-.07008-.08953-.01758-.14453.1775-.04.43414-.0575.71289.0625.40375.17375.34516.59914.53516.33789.19-.26-.01633-.30961-.11133-.63086-.064-.218-.172-.432-.293-.571-.0825-.09375-.25398-.25555-.45898-.49805-.12625-.14875-.24773-.33055-.36523-.56055-.02375-.07875-.10344-.13375-.02344-.15625.3575-.0975.41531.14016.72656-.05859.18375-.115.15602-.25141.0098-.41016-.25375-.2725-.58398-.17484-.58398-.43359s-.09961-.51438.27539-.70312zm.11328 4.0742c-.10891-.03406-.20578-.0036-.26953.14453-.08.19625.06078.21453.17578.39453.2275.36125.3375.40641.75.34766.37125-.0525-.10336-.43148-.31836-.64648-.10812-.10812-.22898-.20617-.33789-.24024zm1.2324 1.4238c.0025.0012.17367.17172.35742.38672.05875.06875.14438.23891.20312.44141-.1975-.06125-.40805-.1118-.62305-.1543-.2075-.04-.41727-.09523-.63477-.11523-.21-.02-.42828-.0078-.64453-.0078-.175 0-.34828.01484-.51953.02734-.175.01375-.35203.02453-.51953.05078.04875-.145.15797-.35672.41797-.48047.1275-.06125.34312-.09164.57812-.11914.1925-.0225.39859-.01664.58984-.02539.335.005.63484.0014.74609.0039.02125.0038.03133-.01906.04883-.0078zm-1.3418 1.4863c.24 0 .47562-.01117.70312.01758.2425.03.47781.07531.69531.13281.24.065.62703.13844.67578.24219.0475.10375-.12352.31023-.16602.49023-.03375.15125-.04601.32094-.07227.49219-.265-.0275-.76633-.0625-.76758-.0625-.0012 0-.0066.02148-.0078.02148-.22375-.01625-.43969-.03086-.64844-.03711-.225-.0063-.43633-.0318-.64258-.0293-.01875-.17625-.06242-.39281-.13867-.63281-.06125-.1925-.14617-.39711-.26367-.59961.20625-.02375.41781-.03516.63281-.03516zm2.0996 1.8789c.0975.0225.31484.0425.58984.125.16.04875.34734.1118.55859.18555.16875.05875.35133.13023.54883.20898.17.0675.34781.14797.53906.23047.17125.075.34305.16906.5293.25781.16875.08.36172.13211.54297.22461.1675.0875.33812.18375.51562.28125.1675.0925.33602.19633.50977.29883.16375.0975.33125.20234.5.30859.16125.10375.35719.16484.52344.27734.0625.0425.13875.08922.21875.13672.11875.0775.23938.15523.35938.24023.16375.11625.31156.25906.47656.38281.16125.12125.34461.21695.50586.3457.1575.12625.30609.26789.46484.40039.15375.12875.31891.25312.47266.39062.15.13375.28945.28523.43945.42773.14625.1375.31008.26516.45508.41016.1425.14375.27086.30188.41211.45312.07943.08372.15227.17661.22656.26758.0043.22601.02036.27559.02148.55274 0 .30625-.01563.30578-.01563.61328 0 .305-.01492.30578-.01367.61328 0 .3075.02734.30703.02734.61328.0013.3075-.0091.30774-.0078.61524 0 .30625.11938.32648.01563.61523l.002 1.1367c.06875.32-.01617.33-.01367.65625 0 .30716-.0068.34389-.0078.61133-.02474-.07499-.04671-.15414-.07227-.22852-.1075-.315-.23461-.61726-.34961-.91602-.11125-.2925-.21312-.57852-.32812-.85352-.115-.27125-.21383-.53922-.33008-.79297-.115-.25125-.2568-.485-.37305-.71875-.11375-.23375-.21703-.46539-.33203-.68164-.11625-.21875-.24492-.42055-.35742-.62305-.115-.205-.22664-.40039-.33789-.58789-.11375-.1925-.20695-.38484-.31445-.55859-.1125-.1825-.24461-.34-.34961-.5-.1125-.17375-.22297-.33102-.32422-.47852-.04-.0575-.07914-.11297-.11914-.16797l-.002-.021c-.04375-.05875-.08977-.11438-.13477-.17188-.0225-.03125-.04516-.065-.06641-.09375l-.0059.002c-.05875-.07625-.11524-.15422-.17774-.23047-.13375-.16125-.28258-.30984-.42383-.46484-.1425-.155-.28219-.31148-.42969-.45898-.15125-.14875-.28961-.30602-.44336-.44726-.155-.14375-.33273-.26414-.49023-.40039-.1625-.13625-.31602-.27945-.47852-.4082-.167-.134-.344-.246-.51-.371-.17-.1275-.34102-.25234-.50977-.37109-.175-.12375-.33586-.26445-.50586-.37695-.18125-.12125-.37297-.20891-.54297-.31641-.1875-.1175-.36906-.22422-.53906-.32422-.19375-.11625-.38258-.22461-.54883-.31836zm19.41 1.5703c-.09125.21625.18383.27.26758.4375.10375.20875.15445.25891.25195.47266.21125 0 .305.01852.5.07227.2025.05375.39602.13969.57226.24219.18125.10375.33813.24562.48438.39062s.25953.31805.36328.49805c.1025.17625.19039.36391.24414.56641.0525.195.10352.39812.10352.60938 0 .30125-.0039.30226-.0039.60352 0 .3-.02539.29961-.02539.59961 0 .30125.0039.30031.0039.60156 0 .3-.01953.22656-.01953.60156 0 .1725.04687.37602.04687.60352 0 .185-.01953.38586-.01953.59961 0 .19125.01172.39281.01172.60156 0 .195-.01563.39656-.01563.60156 0 .1975-.002.40102-.002.60352 0 .2.02148.40156.02148.60156 0 .20375-.04297.40476-.04297.60352 0 .205.04687.40726.04687.60352 0 .2075-.04297.40977-.04297.60352 0 .21375.03125.41531.03125.60156 0 .22625-.0098.43031-.0098.60156 0 .375-.04852.45726.02148.54102.15.1775.21352.08594.44726.08594.2325 0 .44336.07977.44336-.02148 0-.2125.008-.30422.008-.60547 0-.3.0234-.30031.0234-.60156 0-.3-.01-.29961-.01-.59961 0-.3025.0195-.30156.0195-.60156s-.0156-.30031-.0156-.60156.01-.30227.01-.60352c0-.3.0117-.30031.0117-.60156s-.0156-.30031-.0156-.60156-.0332-.30226-.0332-.60352c0-.3.0195-.29836.0195-.59961 0-.3-.0137-.24281-.0137-.60156 0-.17875.0312-.38281.0312-.60156 0-.19375-.0312-.39852-.0312-.60352s.0312-.41047.0312-.60547c0-.21875.006-.42406.006-.60156 0-.36-.0195-.30226-.0195-.60352 0-.195.003-.38992-.0312-.57617-.0325-.19-.12641-.36422-.19141-.54297-.0675-.18125-.13226-.36039-.22851-.52539-.0962-.16625-.17899-.34594-.30274-.49219-.12375-.1475-.29391-.25055-.44141-.37305-.145-.12375-.28492-.25656-.45117-.35156-.16625-.09625-.33633-.19672-.51758-.26172-.1775-.06625-.37125-.0932-.5625-.12695-.18625-.0325-.77961-.03906-.97461-.03906zm-28.9.45508c.14285-.02139.19125.13445-.02344.4082-.105.13375-.27524.29297-.52148.48047-.14125.105-.29062.23234-.45312.37109-.13875.11875-.2882.24547-.43945.38672-.1375.12625-.26906.26961-.41406.41211-.135.13375-.29164.25469-.43164.39844-.13125.1375-.27266.27047-.41016.41797-.13125.14-.2393.30758-.37305.45508-.13.14375-.25938.2907-.39062.43945-.1275.14625-.25922.29141-.38672.44141-.1275.1475-.26242.28891-.38867.44141-.125.15-.2532.29867-.37695.45117-.1225.1525-.25375.29742-.375.45117-.12125.155-.21133.33453-.33008.48828-.12125.1575-.24312.31055-.35938.4668-.1175.15875-.24883.30469-.36133.46094-.12.1675-.23125.33625-.34375.5-.1175.1725-.21477.35063-.32227.51563-.11375.17625-.2393.33695-.3418.50195-.11125.18125-.2118.35773-.31055.52148-.11125.1875-.20828.36609-.30078.52734-.11625.19875-.2268.36883-.31055.51758-.17875.30875-.28281.51734-.32031.52734-.12125.0325-.23508-.13562-.33008-.29688-.11375-.19375-.05469-.58898-.17969-.39648-.15375.235-.08344.25875-.14844.53125-.06625.27125-.16164.26281-.11914.53906.02625.17625.39156.16688.22656.23438-.24.1-.27055.01281-.49805-.11719-.0025-.1375.05336-.47289.09961-.71289.02875-.16125.04352-.15711.07227-.31836 0-.0012-.01883-.0014-.01758-.0039.01-.02125.01734-.03898.02734-.05273.15125-.1875.39094-.22281.21094-.32031-.2625-.14375-.33203-.03648-.58203-.05273.02125-.0675.06766-.10891.09766-.16016.07-.12375.12844-.20016.21094-.22266.11625-.03125.25383.02258.29883.04883.21125.11875.18742.29867.41992.23242.2325-.065.12133-.20547.23633-.41797.0975-.1825.19742-.36156.29492-.53906.10125-.18125.20539-.35625.30664-.53125.10375-.18.18336-.37047.28711-.54297.10875-.1775.23305-.34102.3418-.50976.11125-.175.22344-.34812.33594-.51562.11625-.17125.22039-.34477.33789-.50977.11875-.16875.26281-.31852.38281-.47852.12375-.16625.25-.32688.375-.48438.12875-.1625.24625-.33133.375-.48633.13375-.15875.29008-.29211.42383-.44336.1375-.155.25898-.32125.39648-.46875.1425-.15.27156-.30867.41406-.45117.14625-.1475.30688-.27461.45312-.41211.15125-.1425.28945-.29398.43945-.42774.155-.1375.31961-.26062.47461-.39062.1575-.1325.30539-.27219.46289-.39844.1625-.12875.34461-.22766.50586-.34766.165-.12375.31477-.26726.47852-.38476.16875-.11875.34352-.22219.50976-.33594.17-.115.32734-.24672.49609-.35547.06219-.04906.12035-.0749.16797-.08203zm29.057 1.0742c-.21 0-.40695.04617-.5957.10742-.195.06375-.38969.1293-.55469.24805-.165.12-.28695.28617-.4082.45117-.1175.16375-.24023.33039-.30273.52539-.0625.19-.10156.39547-.10156.60547 0 .31125.02148.31055.02148.62305 0 .31125-.02148.23305-.02148.62305 0 .17875.04492.38805.04492.62305 0 .1925-.01563.4025-.01563.625 0 .1975-.03516.40555-.03516.62305 0 .20125.04687.41055.04687.62305 0 .20375-.02734.4118-.02734.62305 0 .2075-.01953.4175-.01953.625 0 .21.02539.4182.02539.62695 0 .21.0039.4193.0039.62305 0 .21375.01953.42375.01953.625 0 .2175-.02539.4282-.02539.62695 0 .2225.02148.4325.02148.625 0 .235-.0039.44555-.0039.62305 0 .39-.15383.51484.13867.62109.18625.0675.16648.01367.49024.01367.32375 0 .32469-.0059.64844-.0059s.32273-.02148.64648-.02148.32469.01953.64844.01953c.325 0 .32469.01563.64844.01563.325 0 .25016.0071.56641-.05664.16875-.03375.10742-.27344.10742-.58594s-.02148-.3118-.02148-.62305-.02734-.3125-.02734-.625.0332-.3118.0332-.62305-.0059-.31055-.0059-.62305.02148-.31375.02148-.625-.0098-.31055-.0098-.62305-.02148-.3118-.02148-.62305c0-.3125.0078-.31375.0078-.625s-.0059-.31055-.0059-.62305-.01172-.3125-.01172-.625.04297-.3118.04297-.62305c0-.3125-.01563-.3125-.01563-.625s-.02203-.3132-.01953-.62695c0-.3125.0098-.3125.0098-.625 0-.21-.02469-.41476-.08594-.60352-.06375-.19625-.14883-.39023-.26758-.55273-.12-.16375-.28031-.30188-.44531-.42188-.1625-.11875-.35648-.18359-.55274-.24609-.18875-.0625-.3818-.11328-.5918-.11328zm-.91406 4.3555c.2325.03875.33758.14289.51758.27539.18625.13625.35719.295.46094.5.10125.2.15039.42726.15039.66602 0 .28625-.02148.28727-.02148.57227v.56836c0 .285-.002.28531-.002.57031s.04102.28406.04102.57031c0 .285-.02344.28531-.02344.57031 0 .28625.0098.25726.0098.57226 0 .18375-.01953.38852-.01953.57227 0 .315.09719.56289.02344.58789-.28875.10125-.31289 0-.61914 0s-.43891.0095-.53516-.06055c-.09625-.06875-.07227-.25664-.07227-.55664 0-.30125.01758-.30156.01758-.60156s-.04297-.29906-.04297-.60156c0-.29875.01758-.23711.01758-.59961 0-.17625-.0098-.38031-.0098-.60156 0-.19125.01367-.39406.01367-.60156 0-.2.0039-.40227.0039-.60352 0-.2075-.02344-.41227-.02344-.60352 0-.22125.04492-.42531.04492-.60156 0-.36375-.16039-.39875.06836-.59375zm-27.912 1.6797c-.10365-.03545-.23883.12211-.39258.26367-.10375.0975-.19742.24844-.20117.49219-.0012.18875.18109.2107.24609.4707.0825.3275.06078.34273.01953.67773-.01125.10125-.10172.05578-.19922.08203-.165.03125-.35148.07984-.55273.15234-.17.06375-.35766.12055-.53516.2168-.16375.0875-.32688.19375-.48438.3125-.15.11375-.30961.2325-.44336.375-.1275.13875-.2107.31812-.31445.48438-.1.15875-.19883.32156-.26758.50781-.065.17375-.10422.35914-.13672.55664-.02875.18125-.05844.37172-.05469.57422 0 .3-.002.30031-.002.60156 0 .3.02148.29961.02148.59961s-.04492.30031-.04492.60156c0 .3.04687.30031.04687.60156 0 .3-.04102.29891-.04102.59766 0 .30125.0293.30156.0293.60156s-.0078.30031-.0078.60156c0 .2925-.02219.30328-.02344.58203h.98242c.0037-.17625.01172-.22531.01172-.47656-.0025-.3075-.01633-.30844-.01758-.61719 0-.30875-.03391-.30648-.03516-.61523 0-.30875.02008-.30844.01758-.61719 0-.30875-.01367-.31039-.01367-.61914-.0012-.30875.02859-.30844.02734-.61719-.0012-.31-.03125-.30914-.03125-.61914-.0012-.30875.0318-.30914.0293-.61914-.0037-.19875.02711-.38078.06836-.55078.0475-.19125.09875-.36898.1875-.52148.09625-.17125.22852-.30344.35352-.42969.14125-.14125.26906-.29406.41406-.38281.1925-.1175.38453-.17719.51953-.21094.16375-.04125.32805-.0243.4668-.0293.27125-.01125.25992.11172.45117-.01953.3075-.21.54297-.13461.54297-.50586 0-.335-.50547-.0031-.54297-.26563-.03625-.2625.21336-.03726.34961-.25976.17625-.28875-.06445-.34453-.002-.67578.0425-.225.14023-.13195.36523-.2832.225-.14875.20117-.26125.01367-.28125-.42375-.04375-.72031.06414-.82031-.16211-.06-.13875.1875-.24555.09375-.4668-.02656-.0625-.0592-.0956-.09375-.10742zm14.896.37305c-.10312-.0358-.24078.12211-.39453.26367-.10375.0975-.19672.24844-.19922.49219-.0012.1875.18039.21141.24414.47266.0825.32625.06148.34008.02148.67383-.01125.1025-.10367.05773-.20117.08398-.165.03125-.35148.0793-.55273.1543-.17.06125-.35641.11664-.53516.21289-.1625.0875-.32562.19641-.48438.31641-.14875.11375-.30766.2293-.44141.37305-.1275.1375-.21266.31688-.31641.48438-.09875.1575-.19883.32156-.26758.50781-.065.17375-.10352.36109-.13477.55859-.02875.18-.06039.36977-.05664.57227.0025.3-.002.30156-.002.60156 0 .30125.02148.29961.02148.59961s-.04297.30031-.04297.60156c0 .3.04687.29961.04687.59961s-.04297.30156-.04297.60156.03125.29961.03125.59961c0 .30125-.0078.30156-.0078.60156 0 .0925-.0021.15523-.0059.20898h.97461v-.10352c0-.30875-.01633-.30774-.01758-.61524-.0012-.31-.03195-.31039-.0332-.61914-.0012-.30875.01687-.30774.01563-.61524-.0012-.31-.01367-.31039-.01367-.61914-.0012-.30875.03055-.30774.0293-.61524 0-.31-.03-.31109-.03125-.62109 0-.30875.02984-.30914.02734-.61914-.0025-.2.02836-.38008.06836-.54883.0475-.1925.1-.36969.1875-.52344.09875-.17.22922-.30469.35547-.42969.14-.1425.26586-.29281.41211-.38281.1925-.1175.38578-.17914.51953-.21289.165-.04.32875-.02234.46875-.02734.27-.01125.25867.11297.45117-.01953.30625-.20875.54297-.13336.54297-.50586 0-.33375-.50617-.0031-.54492-.26562-.0375-.26375.21406-.03797.35156-.26172.17625-.2875-.0657-.34133-.002-.67383.0425-.225.13898-.1332.36524-.2832.225-.15.20117-.26125.01367-.28125-.42375-.045-.72031.06344-.82031-.16406-.06125-.1375.18555-.24359.0918-.46484-.02625-.0625-.05742-.09549-.0918-.10742zm-13.408 2.3262c-.22375-.045-.58117.26742-.35742.35742 0 0 .62555.1343 1.0293.7168.4025.5825.67188.85047.67188 1.0742 0 .22375.53633.22367-.04492-.98633-.41875-.86875-1.0738-1.1184-1.2988-1.1621zm14.896.37109c-.22375-.04375-.58312.27062-.35938.35938 0 0 .6268.13555 1.0293.7168.40375.58375.67188.85172.67188 1.0742 0 .225.53883.22437-.04492-.98438-.4175-.86875-1.0731-1.121-1.2969-1.166zm-16.369.37109c-.205 0-.39109.03773-.55859.08398-.195.055-.37469.11734-.52344.21484-.1675.10875-.29906.25297-.41406.38672-.135.155-.24672.31344-.32422.46094-.1525.29-.21125.41656-.21875.53906-.025.38875.29422.27398.48047.61523-.045.15625-.03711.31828-.03711.48828.0012.29875-.01883.29891-.01758.59766 0 .29875.01367.2982.01367.5957.0012.29875-.02859.29891-.02734.59766.0012.29875.03.29891.03125.59766 0 .3-.0293.30016-.0293.59766.0012.29875-.0059.29766-.0059.59766 0 .055.0048.09867.0098.13867h3.6914c.0012-.05375.0039-.10516.0039-.16016v-.60156c-.0012-.19375-.02539-.39391-.02539-.59766 0-.19875.04297-.39961.04297-.59961 0-.2025-.04883-.40461-.04883-.59961 0-.20875.04102-.40891.04102-.59766 0-.22125-.03125-.42531-.03125-.60156 0-.28.0078-.49141.0078-.59766 0-.1725-.01023-.4107-.08398-.6582-.06125-.19875-.14969-.41313-.27344-.60938-.11625-.18125-.26602-.3575-.44727-.5-.16375-.12875-.37797-.20148-.60547-.27148-.19375-.06-.40539-.11719-.65039-.11719zm14.895.37305c-.205 0-.38914.03773-.55664.08398-.195.05375-.37539.11859-.52539.21484-.16625.1075-.29586.25172-.41211.38672-.13375.15625-.24742.31539-.32617.46289-.1525.29-.21125.41461-.21875.53711-.02375.3875.29742.27274.48242.61524-.045.15625-.03906.31703-.03906.48828.0012.29875-.01883.29891-.01758.59766.0012.2975.01563.29695.01563.5957.0012.29875-.03055.2982-.0293.5957.0012.3.03.29961.03125.59961.0012.29875-.0293.29891-.0293.59766.0012.19-.000703.26078-.002.36328h3.7012c.0012-.1275.0012-.25242 0-.38867 0-.1925-.02344-.39391-.02344-.59766-.0012-.2.04422-.40086.04297-.59961-.0012-.2025-.04953-.40586-.05078-.59961 0-.20875.04297-.40891.04297-.59766-.0013-.22125-.03-.42336-.03125-.59961 0-.28125.0059-.49266.0059-.59766 0-.175-.007-.41461-.08203-.66211-.06-.1975-.15039-.41117-.27539-.60742-.115-.18-.26406-.3575-.44531-.5-.165-.12875-.37797-.20148-.60547-.27148-.19375-.06-.40734-.11719-.65234-.11719z" fill="#0074c8"/></svg>